<svg viewBox="0 0 40 40" fill="none" xmlns="http://www.w3.org/2000/svg"> <rect x="0" y="0" width="40" height="40" rx="8" fill="#5F62B7" fill-opacity="1"/> <path d="M8 13C12 13 14 10 18 10C22 10 24 13 28 13C30 13 32 12 32 12" stroke="#FFFF" stroke-width="3.5" stroke-linecap="round" stroke-linejoin="round"/> <path d="M8 20C12 20 14 17 18 17C22 17 24 20 28 20C30 20 32 19 32 19" stroke="#FFFF" stroke-width="3.5" stroke-linecap="round" stroke-linejoin="round" opacity="0.7"/> <path d="M8 27C12 27 14 24 18 24C22 24 24 27 28 27C30 27 32 26 32 26" stroke="#FFFF" stroke-width="3.5" stroke-linecap="round" stroke-linejoin="round" opacity="0.4"/> </svg>